solid OpenSCAD_Model
  facet normal -0 0 -1
    outer loop
      vertex -8 0 0
      vertex -7.60845 2.47214 0
      vertex -7.60845 -2.47214 0
    endloop
  endfacet
  facet normal 0 -0 -1
    outer loop
      vertex -7.60845 -2.47214 0
      vertex -7.60845 2.47214 0
      vertex -6.47214 4.70228 0
    endloop
  endfacet
  facet normal 0 0 -1
    outer loop
      vertex -7.60845 -2.47214 0
      vertex -6.47214 4.70228 0
      vertex -4.70228 6.47214 0
    endloop
  endfacet
  facet normal 0 0 -1
    outer loop
      vertex -7.60845 -2.47214 0
      vertex -4.70228 6.47214 0
      vertex -2.47214 7.60845 0
    endloop
  endfacet
  facet normal 0 0 -1
    outer loop
      vertex -7.60845 -2.47214 0
      vertex -2.47214 7.60845 0
      vertex 0 8 0
    endloop
  endfacet
  facet normal 0 0 -1
    outer loop
      vertex -7.60845 -2.47214 0
      vertex 0 8 0
      vertex 2.47214 7.60845 0
    endloop
  endfacet
  facet normal 0 0 -1
    outer loop
      vertex -7.60845 -2.47214 0
      vertex 2.47214 7.60845 0
      vertex 4.70228 6.47214 0
    endloop
  endfacet
  facet normal 0 0 -1
    outer loop
      vertex -7.60845 -2.47214 0
      vertex 4.70228 6.47214 0
      vertex 6.47214 4.70228 0
    endloop
  endfacet
  facet normal 0 0 -1
    outer loop
      vertex -7.60845 -2.47214 0
      vertex 6.47214 4.70228 0
      vertex 7.60845 2.47214 0
    endloop
  endfacet
  facet normal 0 0 -1
    outer loop
      vertex -7.60845 -2.47214 0
      vertex 7.60845 2.47214 0
      vertex 8 0 0
    endloop
  endfacet
  facet normal -0 0 -1
    outer loop
      vertex -7.60845 -2.47214 0
      vertex 8 0 0
      vertex 7.60845 -2.47214 0
    endloop
  endfacet
  facet normal 0 0 -1
    outer loop
      vertex -7.60845 -2.47214 0
      vertex 7.60845 -2.47214 0
      vertex 6.47214 -4.70228 0
    endloop
  endfacet
  facet normal 0 0 -1
    outer loop
      vertex -7.60845 -2.47214 0
      vertex 6.47214 -4.70228 0
      vertex 4.70228 -6.47214 0
    endloop
  endfacet
  facet normal 0 0 -1
    outer loop
      vertex -7.60845 -2.47214 0
      vertex 4.70228 -6.47214 0
      vertex 2.47214 -7.60845 0
    endloop
  endfacet
  facet normal 0 0 -1
    outer loop
      vertex -7.60845 -2.47214 0
      vertex 2.47214 -7.60845 0
      vertex 0 -8 0
    endloop
  endfacet
  facet normal 0 0 -1
    outer loop
      vertex -7.60845 -2.47214 0
      vertex 0 -8 0
      vertex -2.47214 -7.60845 0
    endloop
  endfacet
  facet normal 0 0 -1
    outer loop
      vertex -7.60845 -2.47214 0
      vertex -2.47214 -7.60845 0
      vertex -4.70228 -6.47214 0
    endloop
  endfacet
  facet normal 0 0 -1
    outer loop
      vertex -7.60845 -2.47214 0
      vertex -4.70228 -6.47214 0
      vertex -6.47214 -4.70228 0
    endloop
  endfacet
  facet normal -0.987688 0.156435 0
    outer loop
      vertex -8 0 0
      vertex -8 0 60
      vertex -7.60845 2.47214 0
    endloop
  endfacet
  facet normal -0.987688 0.156435 0
    outer loop
      vertex -7.74865 1.58694 50
      vertex -8 0 60
      vertex -7.74865 1.58694 60
    endloop
  endfacet
  facet normal -0.987688 0.156435 2.87101e-17
    outer loop
      vertex -7.60845 2.47214 0
      vertex -8 0 60
      vertex -7.74865 1.58694 50
    endloop
  endfacet
  facet normal -0.987688 0.156435 0
    outer loop
      vertex -7.60845 2.47214 50
      vertex -7.60845 2.47214 0
      vertex -7.74865 1.58694 50
    endloop
  endfacet
  facet normal -0.987688 -0.156435 -0
    outer loop
      vertex -8 0 0
      vertex -7.60845 -2.47214 0
      vertex -8 0 60
    endloop
  endfacet
  facet normal -0.987688 -0.156435 0
    outer loop
      vertex -7.74865 -1.58694 50
      vertex -7.60845 -2.47214 0
      vertex -7.60845 -2.47214 50
    endloop
  endfacet
  facet normal -0.987688 -0.156435 1.64058e-17
    outer loop
      vertex -8 0 60
      vertex -7.60845 -2.47214 0
      vertex -7.74865 -1.58694 50
    endloop
  endfacet
  facet normal -0.987688 -0.156435 0
    outer loop
      vertex -7.74865 -1.58694 60
      vertex -8 0 60
      vertex -7.74865 -1.58694 50
    endloop
  endfacet
  facet normal -0.891007 -0.45399 -0
    outer loop
      vertex -7.60845 -2.47214 0
      vertex -6.47214 -4.70228 0
      vertex -7.60845 -2.47214 50
    endloop
  endfacet
  facet normal -0.891007 -0.45399 0
    outer loop
      vertex -7.60845 -2.47214 50
      vertex -6.47214 -4.70228 0
      vertex -6.47214 -4.70228 50
    endloop
  endfacet
  facet normal -0.707107 -0.707107 0
    outer loop
      vertex -6.47214 -4.70228 50
      vertex -6.47214 -4.70228 0
      vertex -4.70228 -6.47214 0
    endloop
  endfacet
  facet normal -0.707107 -0.707107 1.73098e-17
    outer loop
      vertex -5.25417 -5.92025 50
      vertex -6.47214 -4.70228 50
      vertex -4.70228 -6.47214 0
    endloop
  endfacet
  facet normal -0.707107 -0.707107 0
    outer loop
      vertex -4.70228 -6.47214 60
      vertex -5.25417 -5.92025 50
      vertex -4.70228 -6.47214 0
    endloop
  endfacet
  facet normal -0.707107 -0.707107 0
    outer loop
      vertex -5.25417 -5.92025 60
      vertex -5.25417 -5.92025 50
      vertex -4.70228 -6.47214 60
    endloop
  endfacet
  facet normal -0.45399 -0.891007 0
    outer loop
      vertex -4.70228 -6.47214 60
      vertex -4.70228 -6.47214 0
      vertex -2.47214 -7.60845 0
    endloop
  endfacet
  facet normal -0.45399 -0.891007 6.56209e-18
    outer loop
      vertex -2.5 -7.59425 50
      vertex -4.70228 -6.47214 60
      vertex -2.47214 -7.60845 0
    endloop
  endfacet
  facet normal -0.45399 -0.891007 0
    outer loop
      vertex -2.47214 -7.60845 50
      vertex -2.5 -7.59425 50
      vertex -2.47214 -7.60845 0
    endloop
  endfacet
  facet normal -0.45399 -0.891007 -0
    outer loop
      vertex -2.5 -7.59425 50
      vertex -2.5 -7.59425 60
      vertex -4.70228 -6.47214 60
    endloop
  endfacet
  facet normal -0.156435 -0.987688 0
    outer loop
      vertex -2.47214 -7.60845 50
      vertex -2.47214 -7.60845 0
      vertex 0 -8 0
    endloop
  endfacet
  facet normal -0.156435 -0.987688 0
    outer loop
      vertex 0 -8 50
      vertex -2.47214 -7.60845 50
      vertex 0 -8 0
    endloop
  endfacet
  facet normal 0.156435 -0.987688 0
    outer loop
      vertex 0 -8 50
      vertex 0 -8 0
      vertex 2.47214 -7.60845 0
    endloop
  endfacet
  facet normal 0.156435 -0.987688 0
    outer loop
      vertex 2.47214 -7.60845 50
      vertex 0 -8 50
      vertex 2.47214 -7.60845 0
    endloop
  endfacet
  facet normal 0.45399 -0.891007 0
    outer loop
      vertex 2.47214 -7.60845 50
      vertex 2.47214 -7.60845 0
      vertex 4.70228 -6.47214 0
    endloop
  endfacet
  facet normal 0.45399 -0.891007 8.66738e-16
    outer loop
      vertex 2.5 -7.59425 50
      vertex 2.47214 -7.60845 50
      vertex 4.70228 -6.47214 0
    endloop
  endfacet
  facet normal 0.45399 -0.891007 0
    outer loop
      vertex 4.70228 -6.47214 60
      vertex 2.5 -7.59425 50
      vertex 4.70228 -6.47214 0
    endloop
  endfacet
  facet normal 0.45399 -0.891007 0
    outer loop
      vertex 2.5 -7.59425 60
      vertex 2.5 -7.59425 50
      vertex 4.70228 -6.47214 60
    endloop
  endfacet
  facet normal 0.707107 -0.707107 0
    outer loop
      vertex 4.70228 -6.47214 60
      vertex 4.70228 -6.47214 0
      vertex 6.47214 -4.70228 0
    endloop
  endfacet
  facet normal 0.707107 -0.707107 7.46019e-17
    outer loop
      vertex 5.25417 -5.92025 50
      vertex 4.70228 -6.47214 60
      vertex 6.47214 -4.70228 0
    endloop
  endfacet
  facet normal 0.707107 -0.707107 0
    outer loop
      vertex 6.47214 -4.70228 50
      vertex 5.25417 -5.92025 50
      vertex 6.47214 -4.70228 0
    endloop
  endfacet
  facet normal 0.707107 -0.707107 0
    outer loop
      vertex 5.25417 -5.92025 50
      vertex 5.25417 -5.92025 60
      vertex 4.70228 -6.47214 60
    endloop
  endfacet
  facet normal 0.891007 -0.45399 0
    outer loop
      vertex 6.47214 -4.70228 50
      vertex 6.47214 -4.70228 0
      vertex 7.60845 -2.47214 0
    endloop
  endfacet
  facet normal 0.891007 -0.45399 0
    outer loop
      vertex 7.60845 -2.47214 50
      vertex 6.47214 -4.70228 50
      vertex 7.60845 -2.47214 0
    endloop
  endfacet
  facet normal 0.987688 -0.156435 0
    outer loop
      vertex 7.60845 -2.47214 50
      vertex 7.60845 -2.47214 0
      vertex 8 0 0
    endloop
  endfacet
  facet normal 0.987688 -0.156435 1.8902e-17
    outer loop
      vertex 7.74865 -1.58694 50
      vertex 7.60845 -2.47214 50
      vertex 8 0 0
    endloop
  endfacet
  facet normal 0.987688 -0.156435 0
    outer loop
      vertex 8 0 60
      vertex 7.74865 -1.58694 50
      vertex 8 0 0
    endloop
  endfacet
  facet normal 0.987688 -0.156435 0
    outer loop
      vertex 7.74865 -1.58694 60
      vertex 7.74865 -1.58694 50
      vertex 8 0 60
    endloop
  endfacet
  facet normal 0.987688 0.156435 0
    outer loop
      vertex 8 0 0
      vertex 7.60845 2.47214 0
      vertex 7.60845 2.47214 50
    endloop
  endfacet
  facet normal 0.987688 0.156435 -0
    outer loop
      vertex 7.74865 1.58694 60
      vertex 8 0 0
      vertex 7.74865 1.58694 50
    endloop
  endfacet
  facet normal 0.987688 0.156435 3.02433e-18
    outer loop
      vertex 7.74865 1.58694 50
      vertex 8 0 0
      vertex 7.60845 2.47214 50
    endloop
  endfacet
  facet normal 0.987688 0.156435 -0
    outer loop
      vertex 8 0 60
      vertex 8 0 0
      vertex 7.74865 1.58694 60
    endloop
  endfacet
  facet normal 0.891007 0.45399 0
    outer loop
      vertex 7.60845 2.47214 0
      vertex 6.47214 4.70228 0
      vertex 6.47214 4.70228 50
    endloop
  endfacet
  facet normal 0.891007 0.45399 -0
    outer loop
      vertex 7.60845 2.47214 50
      vertex 7.60845 2.47214 0
      vertex 6.47214 4.70228 50
    endloop
  endfacet
  facet normal 0.707107 0.707107 0
    outer loop
      vertex 4.70228 6.47214 0
      vertex 4.70228 6.47214 60
      vertex 6.47214 4.70228 0
    endloop
  endfacet
  facet normal 0.707107 0.707107 0
    outer loop
      vertex 5.25417 5.92025 50
      vertex 4.70228 6.47214 60
      vertex 5.25417 5.92025 60
    endloop
  endfacet
  facet normal 0.707107 0.707107 8.95223e-17
    outer loop
      vertex 6.47214 4.70228 0
      vertex 4.70228 6.47214 60
      vertex 5.25417 5.92025 50
    endloop
  endfacet
  facet normal 0.707107 0.707107 -0
    outer loop
      vertex 6.47214 4.70228 50
      vertex 6.47214 4.70228 0
      vertex 5.25417 5.92025 50
    endloop
  endfacet
  facet normal 0.45399 0.891007 0
    outer loop
      vertex 2.47214 7.60845 0
      vertex 2.47214 7.60845 50
      vertex 4.70228 6.47214 0
    endloop
  endfacet
  facet normal 0.45399 0.891007 1.04009e-15
    outer loop
      vertex 4.70228 6.47214 0
      vertex 2.47214 7.60845 50
      vertex 2.5 7.59425 50
    endloop
  endfacet
  facet normal 0.45399 0.891007 0
    outer loop
      vertex 4.70228 6.47214 0
      vertex 2.5 7.59425 50
      vertex 2.5 7.59425 60
    endloop
  endfacet
  facet normal 0.45399 0.891007 0
    outer loop
      vertex 4.70228 6.47214 0
      vertex 2.5 7.59425 60
      vertex 4.70228 6.47214 60
    endloop
  endfacet
  facet normal 0.156435 0.987688 0
    outer loop
      vertex 0 8 0
      vertex 0 8 50
      vertex 2.47214 7.60845 0
    endloop
  endfacet
  facet normal 0.156435 0.987688 0
    outer loop
      vertex 2.47214 7.60845 0
      vertex 0 8 50
      vertex 2.47214 7.60845 50
    endloop
  endfacet
  facet normal -0.156435 0.987688 0
    outer loop
      vertex -2.47214 7.60845 0
      vertex -2.47214 7.60845 50
      vertex 0 8 0
    endloop
  endfacet
  facet normal -0.156435 0.987688 0
    outer loop
      vertex 0 8 0
      vertex -2.47214 7.60845 50
      vertex 0 8 50
    endloop
  endfacet
  facet normal -0.45399 0.891007 0
    outer loop
      vertex -4.70228 6.47214 0
      vertex -4.70228 6.47214 60
      vertex -2.47214 7.60845 0
    endloop
  endfacet
  facet normal -0.45399 0.891007 0
    outer loop
      vertex -2.5 7.59425 50
      vertex -4.70228 6.47214 60
      vertex -2.5 7.59425 60
    endloop
  endfacet
  facet normal -0.45399 0.891007 1.47925e-17
    outer loop
      vertex -2.47214 7.60845 0
      vertex -4.70228 6.47214 60
      vertex -2.5 7.59425 50
    endloop
  endfacet
  facet normal -0.45399 0.891007 0
    outer loop
      vertex -2.47214 7.60845 50
      vertex -2.47214 7.60845 0
      vertex -2.5 7.59425 50
    endloop
  endfacet
  facet normal -0.707107 0.707107 0
    outer loop
      vertex -6.47214 4.70228 0
      vertex -6.47214 4.70228 50
      vertex -4.70228 6.47214 0
    endloop
  endfacet
  facet normal -0.707107 0.707107 2.04571e-17
    outer loop
      vertex -4.70228 6.47214 0
      vertex -6.47214 4.70228 50
      vertex -5.25417 5.92025 50
    endloop
  endfacet
  facet normal -0.707107 0.707107 0
    outer loop
      vertex -4.70228 6.47214 0
      vertex -5.25417 5.92025 50
      vertex -5.25417 5.92025 60
    endloop
  endfacet
  facet normal -0.707107 0.707107 0
    outer loop
      vertex -4.70228 6.47214 0
      vertex -5.25417 5.92025 60
      vertex -4.70228 6.47214 60
    endloop
  endfacet
  facet normal -0.891007 0.45399 0
    outer loop
      vertex -7.60845 2.47214 0
      vertex -7.60845 2.47214 50
      vertex -6.47214 4.70228 0
    endloop
  endfacet
  facet normal -0.891007 0.45399 0
    outer loop
      vertex -6.47214 4.70228 0
      vertex -7.60845 2.47214 50
      vertex -6.47214 4.70228 50
    endloop
  endfacet
  facet normal 0 0 1
    outer loop
      vertex -7.60845 -2.47214 50
      vertex -6.47214 -4.70228 50
      vertex -5.25417 -5.92025 50
    endloop
  endfacet
  facet normal 0 0 1
    outer loop
      vertex 2.5 -4.33013 50
      vertex -7.60845 -2.47214 50
      vertex -2.5 -4.33013 50
    endloop
  endfacet
  facet normal -0 0 1
    outer loop
      vertex -2.5 -4.33013 50
      vertex -7.60845 -2.47214 50
      vertex -5.25417 -5.92025 50
    endloop
  endfacet
  facet normal 0 0 1
    outer loop
      vertex -2.47214 -7.60845 50
      vertex -2.5 -4.33013 50
      vertex -2.5 -7.59425 50
    endloop
  endfacet
  facet normal 0 0 1
    outer loop
      vertex 0 -8 50
      vertex -2.5 -4.33013 50
      vertex -2.47214 -7.60845 50
    endloop
  endfacet
  facet normal -0 0 1
    outer loop
      vertex 2.47214 -7.60845 50
      vertex -2.5 -4.33013 50
      vertex 0 -8 50
    endloop
  endfacet
  facet normal -0 0 1
    outer loop
      vertex 2.5 -7.59425 50
      vertex -2.5 -4.33013 50
      vertex 2.47214 -7.60845 50
    endloop
  endfacet
  facet normal -0 0 1
    outer loop
      vertex 2.5 -4.33013 50
      vertex -2.5 -4.33013 50
      vertex 2.5 -7.59425 50
    endloop
  endfacet
  facet normal 0 0 1
    outer loop
      vertex 6.47214 -4.70228 50
      vertex -7.60845 -2.47214 50
      vertex 2.5 -4.33013 50
    endloop
  endfacet
  facet normal -0 0 1
    outer loop
      vertex 6.47214 -4.70228 50
      vertex 2.5 -4.33013 50
      vertex 5.25417 -5.92025 50
    endloop
  endfacet
  facet normal 0 0 1
    outer loop
      vertex 7.60845 -2.47214 50
      vertex -7.60845 -2.47214 50
      vertex 6.47214 -4.70228 50
    endloop
  endfacet
  facet normal 0 0 1
    outer loop
      vertex 7.74865 -1.58694 50
      vertex -7.60845 -2.47214 50
      vertex 7.60845 -2.47214 50
    endloop
  endfacet
  facet normal 0 -0 1
    outer loop
      vertex 5 -1.1961e-15 50
      vertex -7.60845 -2.47214 50
      vertex 7.74865 -1.58694 50
    endloop
  endfacet
  facet normal 0 0 1
    outer loop
      vertex 7.74865 1.58694 50
      vertex -7.60845 -2.47214 50
      vertex 5 -1.1961e-15 50
    endloop
  endfacet
  facet normal 0 -0 1
    outer loop
      vertex 7.60845 2.47214 50
      vertex -7.60845 -2.47214 50
      vertex 7.74865 1.58694 50
    endloop
  endfacet
  facet normal 0 -0 1
    outer loop
      vertex 6.47214 4.70228 50
      vertex -7.60845 -2.47214 50
      vertex 7.60845 2.47214 50
    endloop
  endfacet
  facet normal 0 -0 1
    outer loop
      vertex 5.25417 5.92025 50
      vertex -7.60845 -2.47214 50
      vertex 6.47214 4.70228 50
    endloop
  endfacet
  facet normal 0 -0 1
    outer loop
      vertex 2.5 4.33013 50
      vertex -7.60845 -2.47214 50
      vertex 5.25417 5.92025 50
    endloop
  endfacet
  facet normal 0 -0 1
    outer loop
      vertex -5 1.03585e-15 50
      vertex -7.60845 -2.47214 50
      vertex 2.5 4.33013 50
    endloop
  endfacet
  facet normal 0 0 1
    outer loop
      vertex -5 1.03585e-15 50
      vertex -7.74865 -1.58694 50
      vertex -7.60845 -2.47214 50
    endloop
  endfacet
  facet normal 0 0 1
    outer loop
      vertex -7.74865 1.58694 50
      vertex -5.25417 5.92025 50
      vertex -6.47214 4.70228 50
    endloop
  endfacet
  facet normal 0 -0 1
    outer loop
      vertex 0 8 50
      vertex -2.5 4.33013 50
      vertex 2.47214 7.60845 50
    endloop
  endfacet
  facet normal 0 0 1
    outer loop
      vertex 2.5 7.59425 50
      vertex -5 1.03585e-15 50
      vertex 2.5 4.33013 50
    endloop
  endfacet
  facet normal 0 0 1
    outer loop
      vertex -7.74865 1.58694 50
      vertex -6.47214 4.70228 50
      vertex -7.60845 2.47214 50
    endloop
  endfacet
  facet normal 0 0 1
    outer loop
      vertex -2.5 7.59425 50
      vertex 0 8 50
      vertex -2.47214 7.60845 50
    endloop
  endfacet
  facet normal 0 -0 1
    outer loop
      vertex -2.5 7.59425 50
      vertex -2.5 4.33013 50
      vertex 0 8 50
    endloop
  endfacet
  facet normal 0 0 1
    outer loop
      vertex -7.74865 1.58694 50
      vertex -2.5 4.33013 50
      vertex -5.25417 5.92025 50
    endloop
  endfacet
  facet normal 0 0 1
    outer loop
      vertex -2.5 4.33013 50
      vertex 2.5 7.59425 50
      vertex 2.47214 7.60845 50
    endloop
  endfacet
  facet normal 0 -0 1
    outer loop
      vertex -2.5 4.33013 50
      vertex -5 1.03585e-15 50
      vertex 2.5 7.59425 50
    endloop
  endfacet
  facet normal 0 0 1
    outer loop
      vertex -7.74865 1.58694 50
      vertex -5 1.03585e-15 50
      vertex -2.5 4.33013 50
    endloop
  endfacet
  facet normal 0.5 0.866025 -0
    outer loop
      vertex -5 1.03585e-15 60
      vertex -5 1.03585e-15 50
      vertex -7.74865 1.58694 60
    endloop
  endfacet
  facet normal 0.5 0.866025 -0
    outer loop
      vertex -7.74865 1.58694 60
      vertex -5 1.03585e-15 50
      vertex -7.74865 1.58694 50
    endloop
  endfacet
  facet normal 0 0 1
    outer loop
      vertex -7.74865 1.58694 60
      vertex -8 0 60
      vertex -7.74865 -1.58694 60
    endloop
  endfacet
  facet normal -0 0 1
    outer loop
      vertex -5 1.03585e-15 60
      vertex -7.74865 1.58694 60
      vertex -7.74865 -1.58694 60
    endloop
  endfacet
  facet normal 0.5 -0.866025 0
    outer loop
      vertex -5 1.03585e-15 50
      vertex -5 1.03585e-15 60
      vertex -7.74865 -1.58694 60
    endloop
  endfacet
  facet normal 0.5 -0.866025 0
    outer loop
      vertex -7.74865 -1.58694 50
      vertex -5 1.03585e-15 50
      vertex -7.74865 -1.58694 60
    endloop
  endfacet
  facet normal -0.5 0.866025 0
    outer loop
      vertex -2.5 -4.33013 60
      vertex -2.5 -4.33013 50
      vertex -5.25417 -5.92025 60
    endloop
  endfacet
  facet normal -0.5 0.866025 0
    outer loop
      vertex -5.25417 -5.92025 60
      vertex -2.5 -4.33013 50
      vertex -5.25417 -5.92025 50
    endloop
  endfacet
  facet normal 0 0 1
    outer loop
      vertex -2.5 -4.33013 60
      vertex -5.25417 -5.92025 60
      vertex -4.70228 -6.47214 60
    endloop
  endfacet
  facet normal 0 0 1
    outer loop
      vertex -2.5 -7.59425 60
      vertex -2.5 -4.33013 60
      vertex -4.70228 -6.47214 60
    endloop
  endfacet
  facet normal 1 -1.36051e-16 0
    outer loop
      vertex -2.5 -4.33013 50
      vertex -2.5 -4.33013 60
      vertex -2.5 -7.59425 60
    endloop
  endfacet
  facet normal 1 -1.36051e-16 0
    outer loop
      vertex -2.5 -7.59425 50
      vertex -2.5 -4.33013 50
      vertex -2.5 -7.59425 60
    endloop
  endfacet
  facet normal -1 1.36051e-16 0
    outer loop
      vertex 2.5 -4.33013 60
      vertex 2.5 -4.33013 50
      vertex 2.5 -7.59425 60
    endloop
  endfacet
  facet normal -1 1.36051e-16 0
    outer loop
      vertex 2.5 -7.59425 60
      vertex 2.5 -4.33013 50
      vertex 2.5 -7.59425 50
    endloop
  endfacet
  facet normal 0 -0 1
    outer loop
      vertex 2.5 -4.33013 60
      vertex 2.5 -7.59425 60
      vertex 4.70228 -6.47214 60
    endloop
  endfacet
  facet normal -0 0 1
    outer loop
      vertex 5.25417 -5.92025 60
      vertex 2.5 -4.33013 60
      vertex 4.70228 -6.47214 60
    endloop
  endfacet
  facet normal 0.5 0.866025 -0
    outer loop
      vertex 5.25417 -5.92025 60
      vertex 5.25417 -5.92025 50
      vertex 2.5 -4.33013 60
    endloop
  endfacet
  facet normal 0.5 0.866025 -0
    outer loop
      vertex 2.5 -4.33013 60
      vertex 5.25417 -5.92025 50
      vertex 2.5 -4.33013 50
    endloop
  endfacet
  facet normal -0.5 -0.866025 -0
    outer loop
      vertex 7.74865 -1.58694 50
      vertex 7.74865 -1.58694 60
      vertex 5 -1.1961e-15 60
    endloop
  endfacet
  facet normal -0.5 -0.866025 -0
    outer loop
      vertex 5 -1.1961e-15 50
      vertex 7.74865 -1.58694 50
      vertex 5 -1.1961e-15 60
    endloop
  endfacet
  facet normal 0 0 1
    outer loop
      vertex 7.74865 1.58694 60
      vertex 5 -1.1961e-15 60
      vertex 7.74865 -1.58694 60
    endloop
  endfacet
  facet normal -0 0 1
    outer loop
      vertex 8 0 60
      vertex 7.74865 1.58694 60
      vertex 7.74865 -1.58694 60
    endloop
  endfacet
  facet normal -0.5 0.866025 0
    outer loop
      vertex 7.74865 1.58694 60
      vertex 7.74865 1.58694 50
      vertex 5 -1.1961e-15 60
    endloop
  endfacet
  facet normal -0.5 0.866025 0
    outer loop
      vertex 5 -1.1961e-15 60
      vertex 7.74865 1.58694 50
      vertex 5 -1.1961e-15 50
    endloop
  endfacet
  facet normal 0.5 -0.866025 0
    outer loop
      vertex 5.25417 5.92025 50
      vertex 5.25417 5.92025 60
      vertex 2.5 4.33013 60
    endloop
  endfacet
  facet normal 0.5 -0.866025 0
    outer loop
      vertex 2.5 4.33013 50
      vertex 5.25417 5.92025 50
      vertex 2.5 4.33013 60
    endloop
  endfacet
  facet normal 0 -0 1
    outer loop
      vertex 2.5 7.59425 60
      vertex 2.5 4.33013 60
      vertex 5.25417 5.92025 60
    endloop
  endfacet
  facet normal -0 -0 1
    outer loop
      vertex 4.70228 6.47214 60
      vertex 2.5 7.59425 60
      vertex 5.25417 5.92025 60
    endloop
  endfacet
  facet normal -1 0 0
    outer loop
      vertex 2.5 7.59425 60
      vertex 2.5 7.59425 50
      vertex 2.5 4.33013 60
    endloop
  endfacet
  facet normal -1 0 0
    outer loop
      vertex 2.5 4.33013 60
      vertex 2.5 7.59425 50
      vertex 2.5 4.33013 50
    endloop
  endfacet
  facet normal 1 0 0
    outer loop
      vertex -2.5 7.59425 50
      vertex -2.5 7.59425 60
      vertex -2.5 4.33013 60
    endloop
  endfacet
  facet normal 1 0 0
    outer loop
      vertex -2.5 4.33013 50
      vertex -2.5 7.59425 50
      vertex -2.5 4.33013 60
    endloop
  endfacet
  facet normal 0 -0 1
    outer loop
      vertex -4.70228 6.47214 60
      vertex -5.25417 5.92025 60
      vertex -2.5 4.33013 60
    endloop
  endfacet
  facet normal 0 0 1
    outer loop
      vertex -2.5 7.59425 60
      vertex -4.70228 6.47214 60
      vertex -2.5 4.33013 60
    endloop
  endfacet
  facet normal -0.5 -0.866025 -0
    outer loop
      vertex -2.5 4.33013 50
      vertex -2.5 4.33013 60
      vertex -5.25417 5.92025 60
    endloop
  endfacet
  facet normal -0.5 -0.866025 -0
    outer loop
      vertex -5.25417 5.92025 50
      vertex -2.5 4.33013 50
      vertex -5.25417 5.92025 60
    endloop
  endfacet
endsolid OpenSCAD_Model
